<svg xmlns="http://www.w3.org/2000/svg" viewBox="0 0 100 100"><defs><style>.cls-1{fill:#3d3d3d;}.cls-2{fill:#fff;}</style></defs><title>chatttArtboard 1</title><path class="cls-1" d="M96.53,90.75c-3.83-1.88-6.41-5.64-8-8.88A50,50,0,1,0,73.64,94.05a29.78,29.78,0,0,0,17.58,5.83,27,27,0,0,0,4-.29,4.69,4.69,0,0,0,1.36-8.84ZM91.22,94.5a24.4,24.4,0,0,1-15.07-5.37,1,1,0,0,0-.23-.17,2.84,2.84,0,0,0-3.47-.44,44.29,44.29,0,1,1,10.76-8.86,3.06,3.06,0,0,0-.7,1.61,2.94,2.94,0,0,0,.15,1.84c1.59,3.61,4.29,8.26,8.58,11.39Z"/><path class="cls-2" d="M82.66,83.11a2.94,2.94,0,0,1-.15-1.84,3.06,3.06,0,0,1,.7-1.61,44.27,44.27,0,1,0-10.76,8.86,2.84,2.84,0,0,1,3.47.44,1,1,0,0,1,.23.17A24.4,24.4,0,0,0,91.22,94.5h0C87,91.37,84.25,86.72,82.66,83.11ZM31.93,53.51A3.51,3.51,0,1,1,35.44,50,3.51,3.51,0,0,1,31.93,53.51Zm18.1,0A3.51,3.51,0,1,1,53.53,50,3.51,3.51,0,0,1,50,53.51Zm18.09,0A3.51,3.51,0,1,1,71.63,50,3.51,3.51,0,0,1,68.12,53.51Z"/><circle class="cls-1" cx="50.03" cy="50" r="3.51"/><circle class="cls-1" cx="31.93" cy="50" r="3.51"/><circle class="cls-1" cx="68.12" cy="50" r="3.51"/></svg>