<svg id="Layer_1" data-name="Layer 1" xmlns="http://www.w3.org/2000/svg" viewBox="0 0 100 100"><defs><style>.cls-1{fill:#00c0ec;}</style></defs><title>chat-Artboard 1</title><path class="cls-1" d="M91,32.3H88.41V61c0,4.48-2.6,8.52-7.83,8.52H29.42v1.37c0,4,4.5,8,9.12,8H77.66l15,8.8-2.17-8.8H91c4.62,0,6.7-4,6.7-8V39.12C97.72,35.16,95.64,32.3,91,32.3Z"/><path class="cls-1" d="M73,12.33H13.52C8.29,12.33,2.28,17,2.28,21.46v36c0,4.12,5.09,7.1,10,7.56L9.08,77.11l20.39-12H73c5.22,0,10-3.17,10-7.64v-36C83,17,78.17,12.33,73,12.33ZM22.59,42.73A5.37,5.37,0,1,1,28,37.37,5.36,5.36,0,0,1,22.59,42.73Zm20.05,0A5.37,5.37,0,1,1,48,37.37,5.36,5.36,0,0,1,42.64,42.73Zm20,0a5.37,5.37,0,1,1,5.37-5.36A5.37,5.37,0,0,1,62.69,42.73Z"/></svg>