<svg id="Layer_1" data-name="Layer 1" xmlns="http://www.w3.org/2000/svg" viewBox="0 0 1000 1000"><defs><style>.cls-1{fill:#82c341;}</style></defs><title>giaw-Artboard 1</title><path class="cls-1" d="M190.8,100a117.32,117.32,0,1,0,80.35,202.79V452A80.35,80.35,0,0,1,134,508.77l-26.14,26.15a117.32,117.32,0,0,0,200.27-83V217.32A117.33,117.33,0,0,0,190.8,100Zm0,197.66a80.35,80.35,0,1,1,80.35-80.34A80.35,80.35,0,0,1,190.8,297.66Z"/><path class="cls-1" d="M455.32,137.59a58.56,58.56,0,0,0-54.52-37H342.14v37H400.8a21.69,21.69,0,0,1,21.69,21.69v30H400.8a58.61,58.61,0,0,0-58.66,58.66V276.6a58.54,58.54,0,0,0,4.14,21.69,56.8,56.8,0,0,0,4.11,8.31,58.65,58.65,0,0,0,109.07-30V159.28A58.58,58.58,0,0,0,455.32,137.59Zm-32.83,139a21.69,21.69,0,1,1-43.38,0V247.94a21.69,21.69,0,0,1,21.69-21.69h21.69Z"/><path class="cls-1" d="M777.88,159.28v176H740.75v-176a21.71,21.71,0,0,0-16.89-21.14,80.48,80.48,0,0,0-71.23,79.8V335.26H615.5V217.94a80.36,80.36,0,0,0-70.93-79.8,21.69,21.69,0,0,0-16.82,21.14v176h-37v-176a58.56,58.56,0,0,1,44.37-56.9,56.4,56.4,0,0,1,8.36-1.46,116.62,116.62,0,0,1,64.59,25.15A117.8,117.8,0,0,1,634,154.77a118,118,0,0,1,90.9-53.85,56.7,56.7,0,0,1,8.4,1.46,59.57,59.57,0,0,1,7.43,2.38,58.58,58.58,0,0,1,37.13,54.52Z"/><path class="cls-1" d="M867.86,246a58.61,58.61,0,0,0,58.66-58.66V158.66A58.54,58.54,0,0,0,922.38,137a56.8,56.8,0,0,0-4.11-8.31,58.65,58.65,0,0,0-109.07,30V276a58.61,58.61,0,0,0,58.66,58.66h58.66v-37H867.86A21.69,21.69,0,0,1,846.17,276V246Zm-21.69-87.32a21.69,21.69,0,1,1,43.38,0v28.66A21.69,21.69,0,0,1,867.86,209H846.17Z"/><path class="cls-1" d="M809,900a117.32,117.32,0,1,0-80.35-202.79V548A80.35,80.35,0,0,1,865.8,491.23l26.14-26.15a117.32,117.32,0,0,0-200.27,83V782.68A117.33,117.33,0,0,0,809,900Zm0-197.66a80.35,80.35,0,1,1-80.35,80.34A80.35,80.35,0,0,1,809,702.34Z"/><path class="cls-1" d="M544.47,862.41a58.61,58.61,0,0,0,54.52,37h58.66v-37H599a21.69,21.69,0,0,1-21.69-21.69v-30H599a58.61,58.61,0,0,0,58.66-58.66V723.4a58.54,58.54,0,0,0-4.14-21.69,56.8,56.8,0,0,0-4.11-8.31,58.65,58.65,0,0,0-109.07,30V840.72A58.54,58.54,0,0,0,544.47,862.41Zm32.83-139a21.69,21.69,0,1,1,43.38,0v28.66A21.69,21.69,0,0,1,599,773.75H577.3Z"/><path class="cls-1" d="M221.91,840.72v-176H259v176a21.71,21.71,0,0,0,16.89,21.14,80.48,80.48,0,0,0,71.23-79.8V664.74h37.13V782.06a80.36,80.36,0,0,0,70.93,79.8A21.69,21.69,0,0,0,472,840.72v-176h37v176a58.56,58.56,0,0,1-44.37,56.9,56.4,56.4,0,0,1-8.36,1.46,117.45,117.45,0,0,1-90.51-53.85,118,118,0,0,1-90.9,53.85,56.7,56.7,0,0,1-8.4-1.46,59.57,59.57,0,0,1-7.43-2.38,59,59,0,0,1-33-32.83A58.36,58.36,0,0,1,221.91,840.72Z"/><path class="cls-1" d="M131.93,754a58.61,58.61,0,0,0-58.66,58.66v28.66A58.54,58.54,0,0,0,77.41,863a56.8,56.8,0,0,0,4.11,8.31,58.65,58.65,0,0,0,109.07-30V724a58.61,58.61,0,0,0-58.66-58.66H73.27v37h58.66A21.69,21.69,0,0,1,153.62,724v30Zm21.69,87.32a21.69,21.69,0,0,1-43.38,0V812.68A21.69,21.69,0,0,1,131.93,791h21.69Z"/><rect class="cls-1" x="363.99" y="383.32" width="36.97" height="36.97"/><path class="cls-1" d="M635.6,442V562.51h-37V442a21.7,21.7,0,0,0-18.2-21.41,22.21,22.21,0,0,0-3.49-.28h-3.17a80,80,0,0,0-55.49,22.25V618h-37V604A117.12,117.12,0,0,1,425.82,618h-3.17A58.92,58.92,0,0,1,401,613.82a58.6,58.6,0,0,1-36.89-51.43c-.05-1-.08-2-.08-3.09v-121h37v121a21.7,21.7,0,0,0,18.2,21.41,22.21,22.21,0,0,0,3.49.28h3.17a80,80,0,0,0,55.49-22.25V383.32h37v13.93a117.12,117.12,0,0,1,55.49-13.93h3.17a58.92,58.92,0,0,1,21.69,4.14,58.6,58.6,0,0,1,36.89,51.43C635.57,439.91,635.6,440.94,635.6,442Z"/><rect class="cls-1" x="598.63" y="580.99" width="36.97" height="36.97"/></svg>