<svg id="Layer_1" data-name="Layer 1" xmlns="http://www.w3.org/2000/svg" viewBox="0 0 100 100"><defs><style>.cls-1{fill:#5bc0eb;}</style></defs><title>o-Artboard 1</title><path class="cls-1" d="M92.23,75.26A45.13,45.13,0,0,1,74.61,92.53,50.3,50.3,0,0,1,50,98.67a50.11,50.11,0,0,1-24.68-6.14A45.24,45.24,0,0,1,7.8,75.26,49.39,49.39,0,0,1,1.36,50.09,49.36,49.36,0,0,1,7.8,24.93,45.88,45.88,0,0,1,25.33,7.57,49.54,49.54,0,0,1,50,1.34a49.73,49.73,0,0,1,24.6,6.23A45.77,45.77,0,0,1,92.23,24.93a49.36,49.36,0,0,1,6.44,25.16A49.39,49.39,0,0,1,92.23,75.26ZM73.54,34.75A26.7,26.7,0,0,0,63.7,24.32,26.19,26.19,0,0,0,50,20.63a26.16,26.16,0,0,0-13.68,3.69,26.7,26.7,0,0,0-9.84,10.43,31.68,31.68,0,0,0-3.66,15.34,31.17,31.17,0,0,0,3.66,15.26,26.86,26.86,0,0,0,9.84,10.34A26.16,26.16,0,0,0,50,79.38,26.19,26.19,0,0,0,63.7,75.69a26.86,26.86,0,0,0,9.84-10.34A31.17,31.17,0,0,0,77.2,50.09,31.68,31.68,0,0,0,73.54,34.75Z"/></svg>