<svg xmlns="http://www.w3.org/2000/svg" width="50" height="50" viewBox="0 0 50 50"><defs><style>.cls-1{fill:#ffcc80;}.cls-2{fill:#ffb74d;}</style></defs><title>pointer-4-Artboard 1</title><path class="cls-1" d="M39.52,15.72a3.11,3.11,0,0,0-3.11,3.11V16.75a3.11,3.11,0,1,0-6.22,0V14.68a3.11,3.11,0,0,0-6.22,0V4.31a3.11,3.11,0,1,0-6.22,0V30.23l-7.19-3.6a5.21,5.21,0,0,0-2.32-.55A2.93,2.93,0,0,0,5.31,29v0a2.94,2.94,0,0,0,.86,2.07l13.41,13.4a15,15,0,0,0,10.61,4.4h0A12.44,12.44,0,0,0,42.63,36.45V18.83A3.11,3.11,0,0,0,39.52,15.72Z"/><path class="cls-2" d="M25,12.38V24a1,1,0,0,1-1,1V14.68A3.07,3.07,0,0,1,25,12.38Z"/><path class="cls-2" d="M31.23,14.45V24a1,1,0,0,1-1,1V16.75A3.07,3.07,0,0,1,31.23,14.45Z"/><path class="cls-2" d="M37.45,16.52V24a1,1,0,0,1-1,1V18.83A3.07,3.07,0,0,1,37.45,16.52Z"/><path d="M30.19,49.92a16,16,0,0,1-11.35-4.7L5.44,31.82A4,4,0,0,1,8.24,25,6.42,6.42,0,0,1,11,25.7l5.7,2.85V4.31a4.15,4.15,0,0,1,8.29,0v6.78a4.13,4.13,0,0,1,5.66,1.52,4.09,4.09,0,0,1,.33.7,4.13,4.13,0,0,1,5.75,1.14,4.51,4.51,0,0,1,.47.93A4.15,4.15,0,0,1,43,16.52a4.21,4.21,0,0,1,.7,2.31V36.45A13.5,13.5,0,0,1,30.19,49.92Zm-22-22.8A1.9,1.9,0,0,0,6.9,30.35L20.31,43.76a13.86,13.86,0,0,0,9.88,4.09,11.41,11.41,0,0,0,11.4-11.4V18.83a2.07,2.07,0,1,0-4.14,0V24a1,1,0,0,1-2.08,0V16.75a2.07,2.07,0,1,0-4.14,0V24a1,1,0,0,1-2.07,0V14.68a2.08,2.08,0,0,0-4.15,0V24a1,1,0,0,1-2.07,0V4.31a2.08,2.08,0,0,0-4.15,0V30.23a1,1,0,0,1-1,1,.92.92,0,0,1-.46-.11l-7.21-3.59A4.06,4.06,0,0,0,8.24,27.12Z"/></svg>