<svg xmlns="http://www.w3.org/2000/svg" width="50" height="50" viewBox="0 0 50 50"><defs><style>.cls-1{fill:#455a64;}</style></defs><title>pointer-2-Artboard 1</title><path class="cls-1" d="M23,49.63H18.84a1,1,0,0,1,0-2.06H23a1,1,0,0,0,1-1V3.45a1,1,0,0,0-1-1H18.84a1,1,0,0,1,0-2.05H23A3.07,3.07,0,0,1,26,3.45v43.1A3.08,3.08,0,0,1,23,49.63Z"/><path class="cls-1" d="M31.16,49.63H27.05A3.08,3.08,0,0,1,24,46.55V3.45A3.07,3.07,0,0,1,27.05.38h4.11a1,1,0,0,1,0,2.05H27.05a1,1,0,0,0-1,1v43.1a1,1,0,0,0,1,1h4.11a1,1,0,0,1,0,2.06Z"/><path d="M23,49.63H18.84a1,1,0,0,1,0-2.06H23a1,1,0,0,0,1-1V3.45a1,1,0,0,0-1-1H18.84a1,1,0,0,1,0-2.05H23A3.07,3.07,0,0,1,26,3.45v43.1A3.08,3.08,0,0,1,23,49.63Z"/><path d="M31.16,49.63H27.05A3.08,3.08,0,0,1,24,46.55V3.45A3.07,3.07,0,0,1,27.05.38h4.11a1,1,0,0,1,0,2.05H27.05a1,1,0,0,0-1,1v43.1a1,1,0,0,0,1,1h4.11a1,1,0,0,1,0,2.06Z"/></svg>