<svg xmlns="http://www.w3.org/2000/svg" width="50" height="50" viewBox="0 0 50 50"><defs><style>.cls-1{fill:#2196f3;}</style></defs><title>pointer-1-Artboard 1</title><path class="cls-1" d="M49.05,18.36,1.83.35A1.11,1.11,0,0,0,.39,1a1.09,1.09,0,0,0,0,.85l21,46.89a1.12,1.12,0,0,0,2.07-.1L30.19,28.9l18.92-8.48a1.12,1.12,0,0,0-.06-2.06Z"/><path d="M22.88,49.3a1.13,1.13,0,0,1-1.47-.57L.41,1.85A1.12,1.12,0,0,1,1.83.35l47.22,18a1.12,1.12,0,0,1,.64,1.44,1.07,1.07,0,0,1-.58.62L30.19,28.9,23.48,48.64A1.11,1.11,0,0,1,22.88,49.3ZM3.55,3.4,22.28,45.23l5.95-17.51a1.09,1.09,0,0,1,.6-.66l16.9-7.57Z"/></svg>