<?xml version="1.0" encoding="utf-8"?>
<!-- Generator: Adobe Illustrator 22.0.1, SVG Export Plug-In . SVG Version: 6.00 Build 0)  -->
<svg version="1.1" id="Layer_1" xmlns="http://www.w3.org/2000/svg" xmlns:xlink="http://www.w3.org/1999/xlink" x="0px" y="0px"
	 viewBox="0 0 300 150" style="enable-background:new 0 0 300 150;" xml:space="preserve">
<style type="text/css">
	.st0{enable-background:new    ;}
	.st1{fill:#E55934;}
	.st2{fill:#5BC0EB;}
</style>
<title>ttt-Artboard 1</title>
<g class="st0">
	<path class="st1" d="M34.2,18.8c0.7,0.6,1,1.5,1,2.5c0,1-0.3,1.8-1,2.4c-0.7,0.6-1.5,0.9-2.6,0.9h-9.2v30.8c0,1-0.4,1.9-1.1,2.6
		c-0.7,0.7-1.7,1-2.8,1c-1.1,0-2-0.3-2.7-1c-0.7-0.7-1.1-1.5-1.1-2.6V24.6H5.5c-1.1,0-1.9-0.3-2.6-0.9c-0.7-0.6-1-1.5-1-2.5
		c0-1,0.3-1.8,1-2.4c0.7-0.6,1.5-0.9,2.6-0.9h26.1C32.7,17.8,33.5,18.1,34.2,18.8z"/>
	<path class="st1" d="M41,23.1c-0.6-0.4-0.8-1.2-0.8-2.3v-1.1c0-1.1,0.3-1.9,0.9-2.3c0.6-0.4,1.5-0.6,2.8-0.6c1.4,0,2.3,0.2,2.9,0.6
		c0.5,0.4,0.8,1.2,0.8,2.3v1.1c0,1.1-0.3,1.9-0.9,2.3c-0.6,0.4-1.5,0.6-2.9,0.6C42.5,23.7,41.6,23.5,41,23.1z M46.4,58
		c-0.7,0.7-1.5,1-2.5,1c-1,0-1.9-0.3-2.5-1c-0.7-0.7-1-1.5-1-2.6V31.1c0-1,0.3-1.9,1-2.6c0.7-0.7,1.5-1,2.5-1c1,0,1.9,0.3,2.5,1
		c0.7,0.7,1,1.5,1,2.6v24.3C47.4,56.5,47.1,57.3,46.4,58z"/>
	<path class="st1" d="M78.6,55.6c0,1-0.4,1.8-1.1,2.5c-0.7,0.7-1.6,1.1-2.5,1.1c-1.1,0-2.1-0.5-2.9-1.5l-7.1-8.8l-6.9,8.8
		c-0.4,0.5-0.8,0.8-1.3,1.1c-0.5,0.3-1,0.4-1.6,0.4c-0.8,0-1.6-0.3-2.4-0.9c-0.7-0.6-1.1-1.4-1.1-2.2c0-0.8,0.3-1.5,0.9-2.2l8.2-10
		l-8.5-10.5c-0.5-0.6-0.8-1.3-0.8-2.1c0-1,0.4-1.8,1.1-2.5c0.7-0.7,1.6-1,2.5-1c1.1,0,2.1,0.5,2.9,1.5l7.2,9l6.7-8.9
		c0.7-1.1,1.7-1.6,2.8-1.6c0.9,0,1.7,0.3,2.4,1s1,1.4,1,2.2c0,0.9-0.3,1.6-0.8,2.3l-8.1,9.9l8.5,10.5C78.4,54.1,78.6,54.8,78.6,55.6
		z"/>
</g>
<g class="st0">
	<path class="st2" d="M129.8,19.2c0.7,0.6,1,1.5,1,2.5c0,1-0.3,1.8-1,2.4c-0.7,0.6-1.5,0.9-2.6,0.9h-9.2v30.8c0,1-0.4,1.9-1.1,2.6
		c-0.7,0.7-1.7,1-2.8,1c-1.1,0-2-0.3-2.7-1c-0.7-0.7-1.1-1.5-1.1-2.6V25h-9.2c-1.1,0-1.9-0.3-2.6-0.9c-0.7-0.6-1-1.5-1-2.5
		c0-1,0.3-1.8,1-2.4c0.7-0.6,1.5-0.9,2.6-0.9h26.1C128.3,18.2,129.1,18.6,129.8,19.2z"/>
</g>
<g class="st0">
	<path class="st2" d="M158.5,28.4c0.7,0.7,1,1.5,1,2.6v24.9c0,1-0.3,1.9-1,2.6c-0.7,0.7-1.5,1-2.5,1c-1,0-1.9-0.3-2.5-1
		c-0.6-0.7-1-1.5-1-2.5c-1,1.1-2.3,2.1-4,2.9c-1.7,0.8-3.4,1.2-5.3,1.2c-2.7,0-5.2-0.7-7.4-2.1c-2.2-1.4-3.9-3.3-5.2-5.8
		c-1.3-2.5-1.9-5.3-1.9-8.4c0-3.1,0.6-6,1.9-8.4c1.3-2.5,3-4.4,5.1-5.8c2.2-1.4,4.6-2.1,7.2-2.1c1.9,0,3.6,0.3,5.3,1
		c1.6,0.7,3,1.6,4.2,2.6V31c0-1,0.3-1.9,1-2.6c0.7-0.7,1.5-1,2.5-1C157,27.4,157.8,27.7,158.5,28.4z M150.3,50.8
		c1.6-1.9,2.4-4.2,2.4-7s-0.8-5.2-2.4-7.1c-1.6-1.9-3.7-2.8-6.2-2.8c-2.5,0-4.6,0.9-6.2,2.8c-1.6,1.9-2.4,4.2-2.4,7.1s0.8,5.2,2.4,7
		c1.6,1.9,3.7,2.8,6.2,2.8C146.6,53.6,148.7,52.6,150.3,50.8z"/>
	<path class="st2" d="M191.1,56c0,1-0.4,1.8-1.1,2.5c-0.7,0.7-1.6,1.1-2.5,1.1c-1.1,0-2.1-0.5-2.9-1.5l-7.1-8.8l-6.9,8.8
		c-0.4,0.5-0.8,0.8-1.3,1.1c-0.5,0.3-1,0.4-1.6,0.4c-0.8,0-1.6-0.3-2.4-0.9c-0.7-0.6-1.1-1.4-1.1-2.2c0-0.8,0.3-1.5,0.9-2.2l8.2-10
		L165,33.6c-0.5-0.6-0.8-1.3-0.8-2.1c0-1,0.4-1.8,1.1-2.5c0.7-0.7,1.6-1,2.5-1c1.1,0,2.1,0.5,2.9,1.5l7.2,9l6.7-8.9
		c0.7-1.1,1.7-1.6,2.8-1.6c0.9,0,1.7,0.3,2.4,1s1,1.4,1,2.2c0,0.9-0.3,1.6-0.8,2.3l-8.1,9.9l8.5,10.5
		C190.9,54.5,191.1,55.2,191.1,56z"/>
</g>
<g class="st0">
	<path class="st1" d="M239.2,19.2c0.7,0.6,1,1.5,1,2.5c0,1-0.3,1.8-1,2.4c-0.7,0.6-1.5,0.9-2.6,0.9h-9.2v30.8c0,1-0.4,1.9-1.1,2.6
		c-0.7,0.7-1.7,1-2.8,1c-1.1,0-2-0.3-2.7-1c-0.7-0.7-1.1-1.5-1.1-2.6V25h-9.2c-1.1,0-1.9-0.3-2.6-0.9c-0.7-0.6-1-1.5-1-2.5
		c0-1,0.3-1.8,1-2.4c0.7-0.6,1.5-0.9,2.6-0.9h26.1C237.6,18.2,238.5,18.6,239.2,19.2z"/>
</g>
<g class="st0">
	<path class="st1" d="M266.8,52.2c-1.4,2.5-3.3,4.4-5.8,5.8c-2.5,1.4-5.2,2.1-8.1,2.1c-3,0-5.7-0.7-8.1-2.1
		c-2.4-1.4-4.4-3.3-5.8-5.8c-1.4-2.5-2.1-5.3-2.1-8.4c0-3.1,0.7-6,2.1-8.4c1.4-2.5,3.3-4.4,5.8-5.8c2.4-1.4,5.1-2.1,8.1-2.1
		c2.9,0,5.6,0.7,8.1,2.1c2.5,1.4,4.4,3.3,5.8,5.8c1.4,2.5,2.1,5.3,2.1,8.4C268.9,46.9,268.2,49.7,266.8,52.2z M260.7,38.6
		c-0.8-1.5-1.9-2.7-3.2-3.5c-1.4-0.8-2.9-1.2-4.5-1.2c-1.6,0-3.1,0.4-4.5,1.2c-1.4,0.8-2.4,2-3.2,3.5c-0.8,1.5-1.2,3.2-1.2,5.2
		c0,1.9,0.4,3.6,1.2,5.1c0.8,1.5,1.9,2.6,3.2,3.5c1.4,0.8,2.9,1.2,4.5,1.2c1.6,0,3.1-0.4,4.5-1.2c1.4-0.8,2.4-2,3.2-3.5
		c0.8-1.5,1.2-3.2,1.2-5.1C261.9,41.8,261.5,40.1,260.7,38.6z"/>
	<path class="st1" d="M298.8,56c0,1-0.4,1.8-1.1,2.5c-0.7,0.7-1.6,1.1-2.5,1.1c-1.1,0-2.1-0.5-2.9-1.5l-7.1-8.8l-6.9,8.8
		c-0.4,0.5-0.8,0.8-1.3,1.1s-1,0.4-1.6,0.4c-0.8,0-1.6-0.3-2.4-0.9c-0.7-0.6-1.1-1.4-1.1-2.2c0-0.8,0.3-1.5,0.9-2.2l8.2-10
		l-8.5-10.5c-0.5-0.6-0.8-1.3-0.8-2.1c0-1,0.4-1.8,1.1-2.5c0.7-0.7,1.6-1,2.5-1c1.1,0,2.1,0.5,2.9,1.5l7.2,9l6.7-8.9
		c0.7-1.1,1.7-1.6,2.8-1.6c0.9,0,1.7,0.3,2.4,1c0.6,0.6,1,1.4,1,2.2c0,0.9-0.3,1.6-0.8,2.3l-8.1,9.9l8.5,10.5
		C298.5,54.5,298.8,55.2,298.8,56z"/>
</g>
<g class="st0">
	<path class="st2" d="M71.3,118.9c-2.8,5.2-6.6,9.2-11.4,12.2c-4.8,3-10.3,4.5-16.4,4.5c-6.1,0-11.5-1.5-16.4-4.5
		c-4.9-3-8.6-7.1-11.4-12.2c-2.7-5.2-4.1-10.8-4.1-17c0-6.2,1.4-11.9,4.1-17c2.7-5.2,6.5-9.2,11.4-12.2c4.8-3,10.3-4.5,16.4-4.5
		c6.1,0,11.5,1.5,16.4,4.5c4.8,3,8.7,7.1,11.4,12.2c2.8,5.2,4.1,10.8,4.1,17C75.4,108.1,74,113.8,71.3,118.9z M60.7,90.5
		c-1.7-3.4-4-6.1-7-8.1c-3-2-6.4-3-10.1-3c-3.8,0-7.2,1-10.2,3c-3,2-5.3,4.7-6.9,8.1c-1.7,3.4-2.5,7.3-2.5,11.5
		c0,4.2,0.8,8,2.5,11.5c1.7,3.4,4,6.1,6.9,8.1c3,2,6.4,3,10.2,3c3.8,0,7.1-1,10.1-3c3-2,5.3-4.7,7-8.1c1.7-3.4,2.5-7.2,2.5-11.4
		C63.2,97.7,62.4,93.9,60.7,90.5z"/>
</g>
<g class="st0">
	<path class="st2" d="M282.8,119.4c-2.8,5.2-6.6,9.2-11.4,12.2c-4.8,3-10.3,4.5-16.4,4.5s-11.5-1.5-16.4-4.5
		c-4.9-3-8.6-7.1-11.4-12.2s-4.1-10.8-4.1-17c0-6.2,1.4-11.9,4.1-17s6.5-9.2,11.4-12.2c4.8-3,10.3-4.5,16.4-4.5s11.5,1.5,16.4,4.5
		c4.8,3,8.7,7.1,11.4,12.2c2.8,5.2,4.1,10.8,4.1,17C286.9,108.5,285.5,114.2,282.8,119.4z M272.2,90.9c-1.7-3.4-4-6.1-7-8.1
		c-3-2-6.4-3-10.1-3c-3.8,0-7.2,1-10.2,3c-3,2-5.3,4.7-6.9,8.1c-1.7,3.4-2.5,7.3-2.5,11.5c0,4.2,0.8,8,2.5,11.5
		c1.7,3.4,4,6.1,6.9,8.1c3,2,6.4,3,10.2,3c3.8,0,7.1-1,10.1-3c3-2,5.3-4.7,7-8.1c1.7-3.4,2.5-7.2,2.5-11.4
		C274.7,98.1,273.8,94.3,272.2,90.9z"/>
</g>
<g class="st0">
	<path class="st1" d="M176.6,127.1c0.8,1,1.2,2.2,1.2,3.5c0,1.6-0.6,3-1.9,4c-1.3,1.1-2.7,1.6-4.2,1.6c-2,0-3.6-0.8-5-2.4l-18-22.2
		l-17.5,22.1c-1.4,1.8-3,2.6-5.1,2.6c-1.5,0-2.8-0.5-3.9-1.5c-1.1-1-1.6-2.2-1.6-3.5c0-1.4,0.5-2.7,1.5-3.8l19.6-24.5l-19.6-24
		c-0.9-1-1.3-2.1-1.3-3.4c0-1.6,0.6-2.9,1.9-4c1.3-1.1,2.7-1.7,4.3-1.7c2,0,3.6,0.8,5,2.4l17.8,22l17.4-21.5c0.7-0.9,1.5-1.5,2.3-2
		c0.9-0.5,1.8-0.7,2.6-0.7c1.5,0,2.8,0.5,4,1.6c1.1,1.1,1.7,2.3,1.7,3.6c0,1.2-0.4,2.3-1.3,3.4l-19.8,24.1L176.6,127.1z"/>
</g>
</svg>
