<svg id="Layer_1" data-name="Layer 1" xmlns="http://www.w3.org/2000/svg" viewBox="0 0 100 100"><defs><style>.cls-1{fill:#e55934;}</style></defs><title>x-Artboard 1</title><path class="cls-1" d="M98.51,87.59a9.74,9.74,0,0,1-4,7.79,13.89,13.89,0,0,1-8.92,3.26,13.48,13.48,0,0,1-10.42-4.71l-25.52-27-24.87,27a13.08,13.08,0,0,1-4.57,3.35,13.68,13.68,0,0,1-5.64,1.18A14.37,14.37,0,0,1,6,95.56c-2.69-1.93-4-4.17-4-6.7A9.79,9.79,0,0,1,5.18,82L34.73,51.18,4.12,18.76a9.17,9.17,0,0,1-2.76-6.52,9.58,9.58,0,0,1,3.92-7.7,14,14,0,0,1,9-3.16A13.78,13.78,0,0,1,24.74,5.9L50.89,33.61,75.13,6.26a12.66,12.66,0,0,1,10.2-4.88,12.83,12.83,0,0,1,8.61,3,8.8,8.8,0,0,1,3.51,6.79,9.88,9.88,0,0,1-3,7.07L65.13,48.65,95.74,81.07A9.2,9.2,0,0,1,98.51,87.59Z"/></svg>